<?xml version='1.0' encoding='UTF-8'?>
<svg width="39.6mm" height="39.6mm" version="1.1" viewBox="0 0 39.6 39.6" xmlns="http://www.w3.org/2000/svg"><path d="M0,0H1.2V1.2H0zM1.2,0H2.4V1.2H1.2zM2.4,0H3.6V1.2H2.4zM3.6,0H4.8V1.2H3.6zM4.8,0H6V1.2H4.8zM6,0H7.2V1.2H6zM7.2,0H8.4V1.2H7.2zM13.2,0H14.4V1.2H13.2zM14.4,0H15.6V1.2H14.4zM19.2,0H20.4V1.2H19.2zM21.6,0H22.8V1.2H21.6zM22.8,0H24V1.2H22.8zM26.4,0H27.6V1.2H26.4zM27.6,0H28.8V1.2H27.6zM31.2,0H32.4V1.2H31.2zM32.4,0H33.6V1.2H32.4zM33.6,0H34.8V1.2H33.6zM34.8,0H36V1.2H34.8zM36,0H37.2V1.2H36zM37.2,0H38.4V1.2H37.2zM38.4,0H39.6V1.2H38.4zM0,1.2H1.2V2.4H0zM7.2,1.2H8.4V2.4H7.2zM12,1.2H13.2V2.4H12zM18,1.2H19.2V2.4H18zM21.6,1.2H22.8V2.4H21.6zM26.4,1.2H27.6V2.4H26.4zM31.2,1.2H32.4V2.4H31.2zM38.4,1.2H39.6V2.4H38.4zM0,2.4H1.2V3.6H0zM2.4,2.4H3.6V3.6H2.4zM3.6,2.4H4.8V3.6H3.6zM4.8,2.4H6V3.6H4.8zM7.2,2.4H8.4V3.6H7.2zM9.6,2.4H10.8V3.6H9.6zM10.8,2.4H12V3.6H10.8zM12,2.4H13.2V3.6H12zM16.8,2.4H18V3.6H16.8zM19.2,2.4H20.4V3.6H19.2zM22.8,2.4H24V3.6H22.8zM24,2.4H25.2V3.6H24zM25.2,2.4H26.4V3.6H25.2zM26.4,2.4H27.6V3.6H26.4zM31.2,2.4H32.4V3.6H31.2zM33.6,2.4H34.8V3.6H33.6zM34.8,2.4H36V3.6H34.8zM36,2.4H37.2V3.6H36zM38.4,2.4H39.6V3.6H38.4zM0,3.6H1.2V4.8H0zM2.4,3.6H3.6V4.8H2.4zM3.6,3.6H4.8V4.8H3.6zM4.8,3.6H6V4.8H4.8zM7.2,3.6H8.4V4.8H7.2zM9.6,3.6H10.8V4.8H9.6zM10.8,3.6H12V4.8H10.8zM12,3.6H13.2V4.8H12zM14.4,3.6H15.6V4.8H14.4zM21.6,3.6H22.8V4.8H21.6zM22.8,3.6H24V4.8H22.8zM25.2,3.6H26.4V4.8H25.2zM28.8,3.6H30V4.8H28.8zM31.2,3.6H32.4V4.8H31.2zM33.6,3.6H34.8V4.8H33.6zM34.8,3.6H36V4.8H34.8zM36,3.6H37.2V4.8H36zM38.4,3.6H39.6V4.8H38.4zM0,4.8H1.2V6H0zM2.4,4.8H3.6V6H2.4zM3.6,4.8H4.8V6H3.6zM4.8,4.8H6V6H4.8zM7.2,4.8H8.4V6H7.2zM9.6,4.8H10.8V6H9.6zM10.8,4.8H12V6H10.8zM13.2,4.8H14.4V6H13.2zM15.6,4.8H16.8V6H15.6zM16.8,4.8H18V6H16.8zM18,4.8H19.2V6H18zM19.2,4.8H20.4V6H19.2zM20.4,4.8H21.6V6H20.4zM24,4.8H25.2V6H24zM27.6,4.8H28.8V6H27.6zM28.8,4.8H30V6H28.8zM31.2,4.8H32.4V6H31.2zM33.6,4.8H34.8V6H33.6zM34.8,4.8H36V6H34.8zM36,4.8H37.2V6H36zM38.4,4.8H39.6V6H38.4zM0,6H1.2V7.2H0zM7.2,6H8.4V7.2H7.2zM9.6,6H10.8V7.2H9.6zM12,6H13.2V7.2H12zM13.2,6H14.4V7.2H13.2zM20.4,6H21.6V7.2H20.4zM22.8,6H24V7.2H22.8zM28.8,6H30V7.2H28.8zM31.2,6H32.4V7.2H31.2zM38.4,6H39.6V7.2H38.4zM0,7.2H1.2V8.4H0zM1.2,7.2H2.4V8.4H1.2zM2.4,7.2H3.6V8.4H2.4zM3.6,7.2H4.8V8.4H3.6zM4.8,7.2H6V8.4H4.8zM6,7.2H7.2V8.4H6zM7.2,7.2H8.4V8.4H7.2zM9.6,7.2H10.8V8.4H9.6zM12,7.2H13.2V8.4H12zM14.4,7.2H15.6V8.4H14.4zM16.8,7.2H18V8.4H16.8zM19.2,7.2H20.4V8.4H19.2zM21.6,7.2H22.8V8.4H21.6zM24,7.2H25.2V8.4H24zM26.4,7.2H27.6V8.4H26.4zM28.8,7.2H30V8.4H28.8zM31.2,7.2H32.4V8.4H31.2zM32.4,7.2H33.6V8.4H32.4zM33.6,7.2H34.8V8.4H33.6zM34.8,7.2H36V8.4H34.8zM36,7.2H37.2V8.4H36zM37.2,7.2H38.4V8.4H37.2zM38.4,7.2H39.6V8.4H38.4zM9.6,8.4H10.8V9.6H9.6zM10.8,8.4H12V9.6H10.8zM16.8,8.4H18V9.6H16.8zM19.2,8.4H20.4V9.6H19.2zM21.6,8.4H22.8V9.6H21.6zM22.8,8.4H24V9.6H22.8zM24,8.4H25.2V9.6H24zM25.2,8.4H26.4V9.6H25.2zM0,9.6H1.2V10.8H0zM2.4,9.6H3.6V10.8H2.4zM3.6,9.6H4.8V10.8H3.6zM4.8,9.6H6V10.8H4.8zM6,9.6H7.2V10.8H6zM7.2,9.6H8.4V10.8H7.2zM13.2,9.6H14.4V10.8H13.2zM14.4,9.6H15.6V10.8H14.4zM15.6,9.6H16.8V10.8H15.6zM16.8,9.6H18V10.8H16.8zM20.4,9.6H21.6V10.8H20.4zM22.8,9.6H24V10.8H22.8zM26.4,9.6H27.6V10.8H26.4zM28.8,9.6H30V10.8H28.8zM31.2,9.6H32.4V10.8H31.2zM32.4,9.6H33.6V10.8H32.4zM33.6,9.6H34.8V10.8H33.6zM34.8,9.6H36V10.8H34.8zM36,9.6H37.2V10.8H36zM3.6,10.8H4.8V12H3.6zM6,10.8H7.2V12H6zM9.6,10.8H10.8V12H9.6zM10.8,10.8H12V12H10.8zM15.6,10.8H16.8V12H15.6zM20.4,10.8H21.6V12H20.4zM21.6,10.8H22.8V12H21.6zM22.8,10.8H24V12H22.8zM24,10.8H25.2V12H24zM27.6,10.8H28.8V12H27.6zM31.2,10.8H32.4V12H31.2zM32.4,10.8H33.6V12H32.4zM34.8,10.8H36V12H34.8zM36,10.8H37.2V12H36zM38.4,10.8H39.6V12H38.4zM6,12H7.2V13.2H6zM7.2,12H8.4V13.2H7.2zM9.6,12H10.8V13.2H9.6zM10.8,12H12V13.2H10.8zM12,12H13.2V13.2H12zM13.2,12H14.4V13.2H13.2zM15.6,12H16.8V13.2H15.6zM16.8,12H18V13.2H16.8zM18,12H19.2V13.2H18zM20.4,12H21.6V13.2H20.4zM24,12H25.2V13.2H24zM26.4,12H27.6V13.2H26.4zM28.8,12H30V13.2H28.8zM33.6,12H34.8V13.2H33.6zM36,12H37.2V13.2H36zM37.2,12H38.4V13.2H37.2zM0,13.2H1.2V14.4H0zM1.2,13.2H2.4V14.4H1.2zM4.8,13.2H6V14.4H4.8zM6,13.2H7.2V14.4H6zM8.4,13.2H9.6V14.4H8.4zM10.8,13.2H12V14.4H10.8zM13.2,13.2H14.4V14.4H13.2zM14.4,13.2H15.6V14.4H14.4zM15.6,13.2H16.8V14.4H15.6zM20.4,13.2H21.6V14.4H20.4zM21.6,13.2H22.8V14.4H21.6zM30,13.2H31.2V14.4H30zM31.2,13.2H32.4V14.4H31.2zM33.6,13.2H34.8V14.4H33.6zM34.8,13.2H36V14.4H34.8zM36,13.2H37.2V14.4H36zM0,14.4H1.2V15.6H0zM1.2,14.4H2.4V15.6H1.2zM3.6,14.4H4.8V15.6H3.6zM7.2,14.4H8.4V15.6H7.2zM9.6,14.4H10.8V15.6H9.6zM12,14.4H13.2V15.6H12zM14.4,14.4H15.6V15.6H14.4zM16.8,14.4H18V15.6H16.8zM18,14.4H19.2V15.6H18zM19.2,14.4H20.4V15.6H19.2zM24,14.4H25.2V15.6H24zM25.2,14.4H26.4V15.6H25.2zM26.4,14.4H27.6V15.6H26.4zM30,14.4H31.2V15.6H30zM33.6,14.4H34.8V15.6H33.6zM34.8,14.4H36V15.6H34.8zM37.2,14.4H38.4V15.6H37.2zM0,15.6H1.2V16.8H0zM2.4,15.6H3.6V16.8H2.4zM6,15.6H7.2V16.8H6zM10.8,15.6H12V16.8H10.8zM12,15.6H13.2V16.8H12zM13.2,15.6H14.4V16.8H13.2zM18,15.6H19.2V16.8H18zM21.6,15.6H22.8V16.8H21.6zM25.2,15.6H26.4V16.8H25.2zM27.6,15.6H28.8V16.8H27.6zM31.2,15.6H32.4V16.8H31.2zM34.8,15.6H36V16.8H34.8zM37.2,15.6H38.4V16.8H37.2zM38.4,15.6H39.6V16.8H38.4zM0,16.8H1.2V18H0zM2.4,16.8H3.6V18H2.4zM3.6,16.8H4.8V18H3.6zM6,16.8H7.2V18H6zM7.2,16.8H8.4V18H7.2zM9.6,16.8H10.8V18H9.6zM13.2,16.8H14.4V18H13.2zM14.4,16.8H15.6V18H14.4zM16.8,16.8H18V18H16.8zM18,16.8H19.2V18H18zM19.2,16.8H20.4V18H19.2zM20.4,16.8H21.6V18H20.4zM24,16.8H25.2V18H24zM28.8,16.8H30V18H28.8zM30,16.8H31.2V18H30zM31.2,16.8H32.4V18H31.2zM34.8,16.8H36V18H34.8zM37.2,16.8H38.4V18H37.2zM0,18H1.2V19.2H0zM1.2,18H2.4V19.2H1.2zM3.6,18H4.8V19.2H3.6zM9.6,18H10.8V19.2H9.6zM13.2,18H14.4V19.2H13.2zM14.4,18H15.6V19.2H14.4zM15.6,18H16.8V19.2H15.6zM16.8,18H18V19.2H16.8zM18,18H19.2V19.2H18zM25.2,18H26.4V19.2H25.2zM27.6,18H28.8V19.2H27.6zM28.8,18H30V19.2H28.8zM30,18H31.2V19.2H30zM31.2,18H32.4V19.2H31.2zM32.4,18H33.6V19.2H32.4zM33.6,18H34.8V19.2H33.6zM34.8,18H36V19.2H34.8zM36,18H37.2V19.2H36zM0,19.2H1.2V20.4H0zM1.2,19.2H2.4V20.4H1.2zM3.6,19.2H4.8V20.4H3.6zM6,19.2H7.2V20.4H6zM7.2,19.2H8.4V20.4H7.2zM13.2,19.2H14.4V20.4H13.2zM14.4,19.2H15.6V20.4H14.4zM15.6,19.2H16.8V20.4H15.6zM18,19.2H19.2V20.4H18zM20.4,19.2H21.6V20.4H20.4zM26.4,19.2H27.6V20.4H26.4zM30,19.2H31.2V20.4H30zM32.4,19.2H33.6V20.4H32.4zM33.6,19.2H34.8V20.4H33.6zM38.4,19.2H39.6V20.4H38.4zM1.2,20.4H2.4V21.6H1.2zM4.8,20.4H6V21.6H4.8zM8.4,20.4H9.6V21.6H8.4zM10.8,20.4H12V21.6H10.8zM12,20.4H13.2V21.6H12zM19.2,20.4H20.4V21.6H19.2zM21.6,20.4H22.8V21.6H21.6zM22.8,20.4H24V21.6H22.8zM24,20.4H25.2V21.6H24zM25.2,20.4H26.4V21.6H25.2zM27.6,20.4H28.8V21.6H27.6zM31.2,20.4H32.4V21.6H31.2zM32.4,20.4H33.6V21.6H32.4zM34.8,20.4H36V21.6H34.8zM36,20.4H37.2V21.6H36zM37.2,20.4H38.4V21.6H37.2zM38.4,20.4H39.6V21.6H38.4zM0,21.6H1.2V22.8H0zM7.2,21.6H8.4V22.8H7.2zM8.4,21.6H9.6V22.8H8.4zM10.8,21.6H12V22.8H10.8zM13.2,21.6H14.4V22.8H13.2zM14.4,21.6H15.6V22.8H14.4zM15.6,21.6H16.8V22.8H15.6zM16.8,21.6H18V22.8H16.8zM18,21.6H19.2V22.8H18zM19.2,21.6H20.4V22.8H19.2zM21.6,21.6H22.8V22.8H21.6zM25.2,21.6H26.4V22.8H25.2zM28.8,21.6H30V22.8H28.8zM31.2,21.6H32.4V22.8H31.2zM32.4,21.6H33.6V22.8H32.4zM33.6,21.6H34.8V22.8H33.6zM36,21.6H37.2V22.8H36zM37.2,21.6H38.4V22.8H37.2zM1.2,22.8H2.4V24H1.2zM2.4,22.8H3.6V24H2.4zM3.6,22.8H4.8V24H3.6zM6,22.8H7.2V24H6zM8.4,22.8H9.6V24H8.4zM9.6,22.8H10.8V24H9.6zM14.4,22.8H15.6V24H14.4zM15.6,22.8H16.8V24H15.6zM18,22.8H19.2V24H18zM19.2,22.8H20.4V24H19.2zM22.8,22.8H24V24H22.8zM25.2,22.8H26.4V24H25.2zM26.4,22.8H27.6V24H26.4zM28.8,22.8H30V24H28.8zM32.4,22.8H33.6V24H32.4zM33.6,22.8H34.8V24H33.6zM34.8,22.8H36V24H34.8zM36,22.8H37.2V24H36zM37.2,22.8H38.4V24H37.2zM38.4,22.8H39.6V24H38.4zM3.6,24H4.8V25.2H3.6zM7.2,24H8.4V25.2H7.2zM8.4,24H9.6V25.2H8.4zM12,24H13.2V25.2H12zM13.2,24H14.4V25.2H13.2zM14.4,24H15.6V25.2H14.4zM16.8,24H18V25.2H16.8zM18,24H19.2V25.2H18zM21.6,24H22.8V25.2H21.6zM25.2,24H26.4V25.2H25.2zM32.4,24H33.6V25.2H32.4zM33.6,24H34.8V25.2H33.6zM34.8,24H36V25.2H34.8zM37.2,24H38.4V25.2H37.2zM38.4,24H39.6V25.2H38.4zM0,25.2H1.2V26.4H0zM2.4,25.2H3.6V26.4H2.4zM3.6,25.2H4.8V26.4H3.6zM12,25.2H13.2V26.4H12zM13.2,25.2H14.4V26.4H13.2zM14.4,25.2H15.6V26.4H14.4zM16.8,25.2H18V26.4H16.8zM18,25.2H19.2V26.4H18zM19.2,25.2H20.4V26.4H19.2zM20.4,25.2H21.6V26.4H20.4zM24,25.2H25.2V26.4H24zM25.2,25.2H26.4V26.4H25.2zM26.4,25.2H27.6V26.4H26.4zM27.6,25.2H28.8V26.4H27.6zM31.2,25.2H32.4V26.4H31.2zM36,25.2H37.2V26.4H36zM38.4,25.2H39.6V26.4H38.4zM0,26.4H1.2V27.6H0zM3.6,26.4H4.8V27.6H3.6zM4.8,26.4H6V27.6H4.8zM7.2,26.4H8.4V27.6H7.2zM9.6,26.4H10.8V27.6H9.6zM12,26.4H13.2V27.6H12zM13.2,26.4H14.4V27.6H13.2zM14.4,26.4H15.6V27.6H14.4zM15.6,26.4H16.8V27.6H15.6zM16.8,26.4H18V27.6H16.8zM21.6,26.4H22.8V27.6H21.6zM22.8,26.4H24V27.6H22.8zM25.2,26.4H26.4V27.6H25.2zM32.4,26.4H33.6V27.6H32.4zM33.6,26.4H34.8V27.6H33.6zM34.8,26.4H36V27.6H34.8zM36,26.4H37.2V27.6H36zM37.2,26.4H38.4V27.6H37.2zM0,27.6H1.2V28.8H0zM6,27.6H7.2V28.8H6zM8.4,27.6H9.6V28.8H8.4zM12,27.6H13.2V28.8H12zM14.4,27.6H15.6V28.8H14.4zM16.8,27.6H18V28.8H16.8zM19.2,27.6H20.4V28.8H19.2zM22.8,27.6H24V28.8H22.8zM24,27.6H25.2V28.8H24zM25.2,27.6H26.4V28.8H25.2zM26.4,27.6H27.6V28.8H26.4zM28.8,27.6H30V28.8H28.8zM30,27.6H31.2V28.8H30zM34.8,27.6H36V28.8H34.8zM36,27.6H37.2V28.8H36zM37.2,27.6H38.4V28.8H37.2zM0,28.8H1.2V30H0zM2.4,28.8H3.6V30H2.4zM3.6,28.8H4.8V30H3.6zM6,28.8H7.2V30H6zM7.2,28.8H8.4V30H7.2zM12,28.8H13.2V30H12zM13.2,28.8H14.4V30H13.2zM14.4,28.8H15.6V30H14.4zM15.6,28.8H16.8V30H15.6zM16.8,28.8H18V30H16.8zM19.2,28.8H20.4V30H19.2zM20.4,28.8H21.6V30H20.4zM22.8,28.8H24V30H22.8zM24,28.8H25.2V30H24zM26.4,28.8H27.6V30H26.4zM28.8,28.8H30V30H28.8zM30,28.8H31.2V30H30zM31.2,28.8H32.4V30H31.2zM32.4,28.8H33.6V30H32.4zM33.6,28.8H34.8V30H33.6zM37.2,28.8H38.4V30H37.2zM38.4,28.8H39.6V30H38.4zM9.6,30H10.8V31.2H9.6zM10.8,30H12V31.2H10.8zM12,30H13.2V31.2H12zM19.2,30H20.4V31.2H19.2zM20.4,30H21.6V31.2H20.4zM22.8,30H24V31.2H22.8zM24,30H25.2V31.2H24zM26.4,30H27.6V31.2H26.4zM27.6,30H28.8V31.2H27.6zM28.8,30H30V31.2H28.8zM33.6,30H34.8V31.2H33.6zM36,30H37.2V31.2H36zM38.4,30H39.6V31.2H38.4zM0,31.2H1.2V32.4H0zM1.2,31.2H2.4V32.4H1.2zM2.4,31.2H3.6V32.4H2.4zM3.6,31.2H4.8V32.4H3.6zM4.8,31.2H6V32.4H4.8zM6,31.2H7.2V32.4H6zM7.2,31.2H8.4V32.4H7.2zM12,31.2H13.2V32.4H12zM18,31.2H19.2V32.4H18zM20.4,31.2H21.6V32.4H20.4zM24,31.2H25.2V32.4H24zM26.4,31.2H27.6V32.4H26.4zM27.6,31.2H28.8V32.4H27.6zM28.8,31.2H30V32.4H28.8zM31.2,31.2H32.4V32.4H31.2zM33.6,31.2H34.8V32.4H33.6zM36,31.2H37.2V32.4H36zM0,32.4H1.2V33.6H0zM7.2,32.4H8.4V33.6H7.2zM9.6,32.4H10.8V33.6H9.6zM10.8,32.4H12V33.6H10.8zM12,32.4H13.2V33.6H12zM15.6,32.4H16.8V33.6H15.6zM16.8,32.4H18V33.6H16.8zM18,32.4H19.2V33.6H18zM20.4,32.4H21.6V33.6H20.4zM21.6,32.4H22.8V33.6H21.6zM27.6,32.4H28.8V33.6H27.6zM28.8,32.4H30V33.6H28.8zM33.6,32.4H34.8V33.6H33.6zM34.8,32.4H36V33.6H34.8zM36,32.4H37.2V33.6H36zM37.2,32.4H38.4V33.6H37.2zM38.4,32.4H39.6V33.6H38.4zM0,33.6H1.2V34.8H0zM2.4,33.6H3.6V34.8H2.4zM3.6,33.6H4.8V34.8H3.6zM4.8,33.6H6V34.8H4.8zM7.2,33.6H8.4V34.8H7.2zM9.6,33.6H10.8V34.8H9.6zM10.8,33.6H12V34.8H10.8zM13.2,33.6H14.4V34.8H13.2zM15.6,33.6H16.8V34.8H15.6zM16.8,33.6H18V34.8H16.8zM19.2,33.6H20.4V34.8H19.2zM24,33.6H25.2V34.8H24zM25.2,33.6H26.4V34.8H25.2zM26.4,33.6H27.6V34.8H26.4zM28.8,33.6H30V34.8H28.8zM30,33.6H31.2V34.8H30zM31.2,33.6H32.4V34.8H31.2zM32.4,33.6H33.6V34.8H32.4zM33.6,33.6H34.8V34.8H33.6zM34.8,33.6H36V34.8H34.8zM37.2,33.6H38.4V34.8H37.2zM38.4,33.6H39.6V34.8H38.4zM0,34.8H1.2V36H0zM2.4,34.8H3.6V36H2.4zM3.6,34.8H4.8V36H3.6zM4.8,34.8H6V36H4.8zM7.2,34.8H8.4V36H7.2zM9.6,34.8H10.8V36H9.6zM10.8,34.8H12V36H10.8zM12,34.8H13.2V36H12zM13.2,34.8H14.4V36H13.2zM15.6,34.8H16.8V36H15.6zM16.8,34.8H18V36H16.8zM18,34.8H19.2V36H18zM21.6,34.8H22.8V36H21.6zM25.2,34.8H26.4V36H25.2zM28.8,34.8H30V36H28.8zM30,34.8H31.2V36H30zM33.6,34.8H34.8V36H33.6zM34.8,34.8H36V36H34.8zM36,34.8H37.2V36H36zM38.4,34.8H39.6V36H38.4zM0,36H1.2V37.2H0zM2.4,36H3.6V37.2H2.4zM3.6,36H4.8V37.2H3.6zM4.8,36H6V37.2H4.8zM7.2,36H8.4V37.2H7.2zM9.6,36H10.8V37.2H9.6zM15.6,36H16.8V37.2H15.6zM18,36H19.2V37.2H18zM19.2,36H20.4V37.2H19.2zM24,36H25.2V37.2H24zM27.6,36H28.8V37.2H27.6zM31.2,36H32.4V37.2H31.2zM32.4,36H33.6V37.2H32.4zM36,36H37.2V37.2H36zM0,37.2H1.2V38.4H0zM7.2,37.2H8.4V38.4H7.2zM10.8,37.2H12V38.4H10.8zM12,37.2H13.2V38.4H12zM14.4,37.2H15.6V38.4H14.4zM18,37.2H19.2V38.4H18zM21.6,37.2H22.8V38.4H21.6zM25.2,37.2H26.4V38.4H25.2zM26.4,37.2H27.6V38.4H26.4zM30,37.2H31.2V38.4H30zM31.2,37.2H32.4V38.4H31.2zM33.6,37.2H34.8V38.4H33.6zM34.8,37.2H36V38.4H34.8zM36,37.2H37.2V38.4H36zM0,38.4H1.2V39.6H0zM1.2,38.4H2.4V39.6H1.2zM2.4,38.4H3.6V39.6H2.4zM3.6,38.4H4.8V39.6H3.6zM4.8,38.4H6V39.6H4.8zM6,38.4H7.2V39.6H6zM7.2,38.4H8.4V39.6H7.2zM9.6,38.4H10.8V39.6H9.6zM12,38.4H13.2V39.6H12zM14.4,38.4H15.6V39.6H14.4zM16.8,38.4H18V39.6H16.8zM18,38.4H19.2V39.6H18zM20.4,38.4H21.6V39.6H20.4zM26.4,38.4H27.6V39.6H26.4zM27.6,38.4H28.8V39.6H27.6zM28.8,38.4H30V39.6H28.8zM30,38.4H31.2V39.6H30zM32.4,38.4H33.6V39.6H32.4zM37.2,38.4H38.4V39.6H37.2z" id="qr-path" fill="#000000" fill-opacity="1" fill-rule="nonzero" stroke="none" /></svg>